<svg xmlns="http://www.w3.org/2000/svg" xmlns:xlink="http://www.w3.org/1999/xlink" width="188" height="40" viewBox="0 0 188 40">
    <defs>
        <path id="prefix__a" d="M0 0.196L39.462 0.196 39.462 38.565 0 38.565z"/>
        <path id="prefix__c" d="M.005 11.031l8.945 8.996s2.985-6.087 8.495-10.913c3.47-3.04 7.94-5.578 13.294-5.78.076-.004.157-.009.234-.01 0 0-4.142-3.196-10.593-3.196C14.885.128 7.716 2.446.005 11.03"/>
        <path id="prefix__f" d="M13.583 11.054C10.114 14.092 5.644 16.63.29 16.834c-.08.002-.156.008-.234.01 0 0 14.203 10.958 30.967-7.707L22.081.077s-2.99 6.15-8.498 10.977"/>
        <path id="prefix__i" d="M.016 5.344c2.197.96 6.29 3.662 10.478 10.018l6.15-11.842C15.591 2.193 14.147.825 13.215.013 5.35.018 1.276 3.997.016 5.343"/>
        <path id="prefix__l" d="M.094 11.91c1.028 1.298 2.575 2.78 3.755 3.771 5.07-.89 8.476-1.577 12.702-5.492C14.325 9.18 10.33 6.27 6.243.07L.093 11.91z"/>
        <linearGradient id="prefix__d" x1="0%" x2="100%" y1="50%" y2="50%">
            <stop offset="0%" stop-color="#ED3F36"/>
            <stop offset="100%" stop-color="#B31F2A"/>
        </linearGradient>
        <linearGradient id="prefix__g" x1="0%" x2="100%" y1="50%" y2="50%">
            <stop offset="0%" stop-color="#ED3F36"/>
            <stop offset="100%" stop-color="#B31F2A"/>
        </linearGradient>
        <linearGradient id="prefix__j" x1=".001%" x2="100.001%" y1="50%" y2="50%">
            <stop offset="0%" stop-color="#2A3B8E"/>
            <stop offset="100%" stop-color="#1C75BA"/>
        </linearGradient>
        <linearGradient id="prefix__m" x1="0%" x2="100%" y1="49.999%" y2="49.999%">
            <stop offset="0%" stop-color="#1C75BA"/>
            <stop offset="100%" stop-color="#2A3B8E"/>
        </linearGradient>
    </defs>
    <g fill="none" fill-rule="evenodd">
        <g transform="translate(0 .034)">
            <mask id="prefix__b" fill="#fff">
                <use xlink:href="#prefix__a"/>
            </mask>
            <path fill="#FFF" d="M15.944 38.565c-6.57.006-10.85-3.158-11.119-3.363L2.23 32.905l-.04-.063-.045-.045C2.091 32.74.84 31.433.34 30.8l-.34-.43 6.897-13.283-5.082-5.109.535-.596c3.617-4.026 7.41-7.009 11.276-8.866C16.827.978 20.097.198 23.347.197c6.68-.006 10.956 3.235 11.134 3.372.961.711 2.424 1.892 2.68 2.297l.033.055.047.044c.741.74 1.374 1.44 1.883 2.08l.338.43-6.913 13.318 4.926 4.993-.531.593c-3.617 4.024-7.41 7.008-11.278 8.865-3.2 1.538-6.471 2.319-9.722 2.321" mask="url(#prefix__b)"/>
        </g>
        <g transform="translate(2.984 .952)">
            <mask id="prefix__e" fill="#fff">
                <use xlink:href="#prefix__c"/>
            </mask>
            <path fill="url(#prefix__d)" d="M.005 11.031l8.945 8.996s2.985-6.087 8.495-10.913c3.47-3.04 7.94-5.578 13.294-5.78.076-.004.157-.009.234-.01 0 0-4.142-3.196-10.593-3.196C14.885.128 7.716 2.446.005 11.03" mask="url(#prefix__e)"/>
        </g>
        <g transform="translate(5.28 17.71)">
            <mask id="prefix__h" fill="#fff">
                <use xlink:href="#prefix__f"/>
            </mask>
            <path fill="url(#prefix__g)" d="M13.583 11.054C10.114 14.092 5.644 16.63.29 16.834c-.08.002-.156.008-.234.01 0 0 14.203 10.958 30.967-7.707L22.081.077s-2.99 6.15-8.498 10.977" mask="url(#prefix__h)"/>
        </g>
        <g transform="translate(21.808 5.084)">
            <mask id="prefix__k" fill="#fff">
                <use xlink:href="#prefix__i"/>
            </mask>
            <path fill="url(#prefix__j)" d="M.016 5.344c2.197.96 6.29 3.662 10.478 10.018l6.15-11.842C15.591 2.193 14.147.825 13.215.013 5.35.018 1.276 3.997.016 5.343" mask="url(#prefix__k)"/>
        </g>
        <g transform="translate(.918 18.398)">
            <mask id="prefix__n" fill="#fff">
                <use xlink:href="#prefix__l"/>
            </mask>
            <path fill="url(#prefix__m)" d="M.094 11.91c1.028 1.298 2.575 2.78 3.755 3.771 5.07-.89 8.476-1.577 12.702-5.492C14.325 9.18 10.33 6.27 6.243.07L.093 11.91z" mask="url(#prefix__n)"/>
        </g>
        <g fill="#FFF">
            <path d="M122.969 16.157c-.178.35-.347.848-.5 1.487-.32 1.041-.559 2.172-.583 3.118-.057 2.006.405 3.492 1.405 4.542 1.343 1.411 3.784 2.103 7.373 2.177 7.203.149 11.685-2.983 13.4-9.355.27-1.075.423-2.062.448-2.933.048-1.743-.424-3.135-1.404-4.141-1.397-1.435-3.822-2.212-7.327-2.212-3.228 0-6.03.653-8.2 1.839-1.766.964-3.028 2.176-3.756 3.603h5.782c.332-.543.84-1.042 1.518-1.485.976-.645 2.111-.973 3.37-.973 1.466 0 2.556.36 3.247 1.07.622.636.92 1.556.889 2.731-.025.762-.178 1.655-.459 2.653-.664 2.443-1.607 4.169-2.802 5.127-.938.777-2.231 1.17-3.836 1.17-1.462 0-2.53-.334-3.17-.994-.512-.524-.755-1.25-.73-2.16.01-.39.196-1.155.345-1.77l.195-.653h1.65l.747-2.84h-7.602zM.206 27.266L5.333 27.266 10.247 9.16 5.088 9.16zM62.703 9.152c-2.108 0-3.998.816-5.615 2.428-1.7 1.692-2.954 4.04-3.73 6.981-.191.632-.316 1.187-.387 1.709-.077.532-.122 1.043-.132 1.523-.047 1.852.387 3.256 1.284 4.179.972.994 2.51 1.332 4.618 1.287h3.675l.788-2.999c-1.624-.02-2.81-.402-3.528-1.138-.572-.588-.85-1.398-.825-2.411.006-.32.049-.672.127-1.072.075-.372.16-.778.254-1.213.712-2.79 1.774-4.64 3.157-5.507.12-.076.247-.112.382-.112.25 0 .425.136.46.164l1.499 1.312c.323.303.79.632.954.632.292 0 .8-.293.955-.397l3.664-2.223-4.015 14.971h5.208l4.839-18.11h-5.942l-2.391 1.515c-.105.068-.663.431-1.014.467l-.054.004c-.088 0-.229-.023-.396-.134L64.79 9.704c-.02-.015-.44-.365-1.049-.481-.34-.063-.682-.068-.777-.068h-.036l-.225-.003M34.598 9.16l-2.795 10.274c-.365 1.226-.573 2.325-.64 3.368-.103 1.583.196 2.726.917 3.494.746.799 1.977 1.185 3.7 1.185 2.866 0 5.285-1.057 7.25-3.145l.82-.866-1.108 3.796h5.128c.286-.937 1.03-3.654 1.88-6.759L52.849 9.16h-5.19l-2.649 9.213c-.301.863-.462 1.157-.539 1.298-.01.02-.019.033-.023.044l-.02.048c-1.368 2.548-3.3 4.067-5.168 4.067-.866 0-1.574-.264-2.045-.77-.412-.437-.613-1.041-.571-1.701.058-.861.32-1.932.47-2.494l2.641-9.705h-5.157zM110.569 5.764l15.024.026.536-2.22-10.3-.026.944-3.385h-1.552c-3.17.12-4.766.45-5.017.507l-.435 1.502 1.84-.014-1.04 3.61zM92.237 13.103l.362.01-3.8 14.153h5.499L99.16 9.16h-9.258c-3.179 0-6.802.172-9.584 2.603-1.693 1.48-2.758 3.416-3.67 6.687-.192.604-.328 1.171-.407 1.696-.088.576-.112 1.288-.12 1.66-.045 1.782.379 3.147 1.267 4.06 1.018 1.043 2.736 1.448 5.015 1.4l3.16-.007.894-3.056c-1.818-.025-3.213-.486-4.042-1.34-.598-.61-.885-1.391-.862-2.32.009-.316.05-.664.135-1.063.076-.372.163-.774.266-1.207.399-1.485 1.454-4.095 4.037-5 .028-.009.405-.141.667-.177l5.579.007zM77.205 5.756l.888-3.251-5.126-.275c-6.007.252-11.741.724-12.855.806l-.717 2.72v.008l17.81-.008zM21.532 23.36c-.131.312-.439.53-.8.53-.262 0-.495-.117-.655-.3l-.035-.06c-.087-.115-.165-.248-.233-.393-.535-1.142-3.277-8.346-3.847-9.916h-5.141l4.647 12.486c.095.158.493 1.56 2.053 1.56h8.22L30.623 9.16h-7.886L22.01 11.9h2.617l-3.09 11.423-.006.036zM31.784 5.756l.887-3.251-5.125-.275c-6.007.252-11.741.724-12.856.806l-.717 2.72v.008l17.811-.008zM120.133 10.734c-1.212-1.25-3.66-1.856-7.484-1.856-3.254 0-5.913.528-7.907 1.57-1.826.956-3.014 2.221-3.587 3.843h5.897c.314-.833.914-1.465 1.846-1.955.864-.423 1.856-.635 2.956-.635 1.556 0 2.593.287 3.168.88.348.356.516.816.5 1.365-.007.249-.037.447-.094.604l-.165.619c-.015.059-.051.178-.138.47-.052.17-.098.33-.106.36l-.013.17h-.876l-6.541.014c-.07-.003-.139-.003-.207-.003-1.157 0-2.226.145-3.175.43-1.002.299-1.888.716-2.632 1.234-.744.523-1.369 1.139-1.852 1.827-.486.688-.823 1.41-.995 2.15-.476 1.913-.18 3.32.897 4.305.957.875 2.368 1.135 6.605 1.133h.811l.859-2.82c-.019.06-1.108-.008-1.214-.013-.408-.025-.812-.09-1.182-.274-.919-.452-1.219-1.45-.992-2.426.155-.59.545-1.106 1.166-1.541.597-.42 1.353-.63 2.248-.63h.081l6.123.016-2.09 7.688h5.401l3.438-12.907c.049-.222.083-.408.105-.57.028-.184.043-.357.043-.524.032-1.05-.26-1.874-.894-2.524M143.154 25.87c.002.076-.015.143-.049.202-.035.059-.081.109-.138.15-.058.039-.126.068-.202.09-.076.02-.155.031-.237.032-.085.001-.167-.008-.246-.032-.08-.022-.149-.057-.211-.103-.06-.047-.11-.105-.147-.178-.037-.07-.054-.155-.054-.252l.2-.003c0 .064.012.12.037.168.026.049.059.09.101.121.042.032.09.057.146.072.055.017.11.025.168.024.062 0 .119-.008.17-.02.052-.011.096-.029.133-.052.04-.024.066-.054.088-.09.021-.036.031-.08.031-.13 0-.055-.013-.099-.034-.132-.023-.034-.055-.06-.095-.082-.043-.022-.093-.04-.153-.055-.058-.014-.125-.03-.2-.046l-.223-.058c-.067-.02-.125-.045-.173-.077-.05-.033-.086-.075-.113-.127-.028-.051-.042-.12-.043-.206 0-.07.014-.134.045-.19.031-.055.074-.1.125-.139.053-.037.115-.066.184-.087.068-.02.141-.03.218-.03.106-.001.193.01.266.035.072.027.132.062.18.107.045.046.08.1.104.163.024.063.038.13.044.202l-.197.002c-.006-.05-.018-.094-.038-.136-.018-.041-.044-.077-.075-.107-.032-.03-.07-.051-.116-.068-.046-.016-.096-.023-.155-.022-.053 0-.103.006-.148.017-.046.013-.085.029-.118.052-.032.022-.058.05-.077.083-.019.033-.028.07-.027.115 0 .05.008.091.022.118.015.029.037.052.07.07.032.018.072.032.122.045.05.013.11.027.18.046.05.013.1.024.152.035.05.012.1.025.147.04.047.015.09.034.13.055.042.022.077.05.108.082.03.034.054.074.072.122.016.048.025.106.026.173M144.797 24.907L144.309 26.283 144.129 26.285 143.605 24.91 143.624 26.291 143.422 26.295 143.402 24.665 143.694 24.661 144.211 26.024 144.699 24.648 144.994 24.644 145.014 26.275 144.814 26.277z" transform="translate(41.55 1.182)"/>
        </g>
    </g>
</svg>
